<?xml version="1.0" encoding="UTF-8" standalone="no"?>
<svg
   height="256"
   width="256"
   version="1.1"
   id="svg1091"
   sodipodi:docname="qgis-kml.svg"
   inkscape:version="1.2.2 (b0a8486541, 2022-12-01)"
   xmlns:inkscape="http://www.inkscape.org/namespaces/inkscape"
   xmlns:sodipodi="http://sodipodi.sourceforge.net/DTD/sodipodi-0.dtd"
   xmlns:xlink="http://www.w3.org/1999/xlink"
   xmlns="http://www.w3.org/2000/svg"
   xmlns:svg="http://www.w3.org/2000/svg">
  <defs
     id="defs1095">
    <linearGradient
       id="linearGradient1592"
       inkscape:swatch="solid">
      <stop
         style="stop-color:#ffffff;stop-opacity:1;"
         offset="0"
         id="stop1590" />
    </linearGradient>
    <linearGradient
       inkscape:collect="always"
       xlink:href="#linearGradient1592"
       id="linearGradient1594"
       x1="38.792054"
       y1="68.112948"
       x2="69.004268"
       y2="68.112948"
       gradientUnits="userSpaceOnUse"
       gradientTransform="matrix(0.82990555,0,0,0.82990555,11.998641,-13.323028)" />
  </defs>
  <sodipodi:namedview
     id="namedview1093"
     pagecolor="#ffffff"
     bordercolor="#000000"
     borderopacity="0.25"
     inkscape:showpageshadow="2"
     inkscape:pageopacity="0.0"
     inkscape:pagecheckerboard="0"
     inkscape:deskcolor="#d1d1d1"
     showgrid="false"
     inkscape:zoom="3.2460938"
     inkscape:cx="108.59206"
     inkscape:cy="128.61612"
     inkscape:window-width="1920"
     inkscape:window-height="997"
     inkscape:window-x="0"
     inkscape:window-y="0"
     inkscape:window-maximized="1"
     inkscape:current-layer="g1075" />
  <linearGradient
     id="a">
    <stop
       offset="0"
       stop-color="#f5f5f5"
       id="stop989" />
    <stop
       offset="1"
       stop-color="#fff"
       id="stop991" />
  </linearGradient>
  <linearGradient
     id="b"
     gradientUnits="userSpaceOnUse"
     x1="190.52345"
     x2="180.14067"
     y1="30.799114"
     y2="41.59544">
    <stop
       offset="0"
       stop-color="#afafaf"
       id="stop994" />
    <stop
       offset="1"
       stop-color="#fff"
       id="stop996" />
  </linearGradient>
  <linearGradient
     id="c"
     gradientUnits="userSpaceOnUse"
     x1="120.7066"
     x2="123.01035"
     xlink:href="#a"
     y1="244.55363"
     y2="121.55801" />
  <linearGradient
     gradientUnits="userSpaceOnUse"
     x1="-19.831818"
     x2="384.75043"
     xlink:href="#a"
     y1="221.75748"
     y2="222.76762"
     id="linearGradient1000" />
  <filter
     id="d"
     color-interpolation-filters="sRGB"
     x="-0.052127235"
     y="-0.039675402"
     width="1.1140283"
     height="1.0867899">
    <feFlood
       flood-opacity=".851449"
       result="flood"
       id="feFlood1002" />
    <feComposite
       in="flood"
       in2="SourceGraphic"
       operator="in"
       result="composite1"
       id="feComposite1004" />
    <feGaussianBlur
       result="blur"
       stdDeviation="4"
       id="feGaussianBlur1006" />
    <feOffset
       dx="1.8"
       dy="1.8"
       result="offset"
       id="feOffset1008" />
    <feComposite
       in="SourceGraphic"
       in2="offset"
       operator="over"
       result="composite2"
       id="feComposite1010" />
  </filter>
  <filter
     id="e"
     color-interpolation-filters="sRGB"
     x="-0.17846452"
     y="-0.17397739"
     width="1.3903911"
     height="1.3805755">
    <feFlood
       flood-opacity=".775362"
       result="flood"
       id="feFlood1013" />
    <feComposite
       in="flood"
       in2="SourceGraphic"
       operator="in"
       result="composite1"
       id="feComposite1015" />
    <feGaussianBlur
       result="blur"
       stdDeviation="4"
       id="feGaussianBlur1017" />
    <feOffset
       dx="1.8"
       dy="1.8"
       result="offset"
       id="feOffset1019" />
    <feComposite
       in="SourceGraphic"
       in2="offset"
       operator="over"
       result="composite2"
       id="feComposite1021" />
  </filter>
  <filter
     id="f"
     color-interpolation-filters="sRGB"
     x="-0.052095237"
     y="-0.10076316"
     width="1.1327619"
     height="1.2567895">
    <feFlood
       flood-opacity=".419"
       result="flood"
       id="feFlood1024" />
    <feComposite
       in="flood"
       in2="SourceGraphic"
       operator="in"
       result="composite1"
       id="feComposite1026" />
    <feGaussianBlur
       result="blur"
       stdDeviation="1.8"
       id="feGaussianBlur1028" />
    <feOffset
       dx="3"
       dy="3"
       result="offset"
       id="feOffset1030" />
    <feComposite
       in="SourceGraphic"
       in2="offset"
       operator="over"
       result="composite2"
       id="feComposite1032" />
  </filter>
  <linearGradient
     id="g"
     gradientUnits="userSpaceOnUse"
     x1="61.441303"
     x2="63.125427"
     y1="161.2032"
     y2="273.62759">
    <stop
       offset="0"
       stop-color="#129300"
       id="stop1035" />
    <stop
       offset="1"
       stop-color="#e4f363"
       id="stop1037" />
  </linearGradient>
  <filter
     id="h"
     color-interpolation-filters="sRGB"
     x="-0.1884478"
     y="-0.23683736"
     width="1.4430925"
     height="1.5692595">
    <feFlood
       flood-opacity=".5"
       result="flood"
       id="feFlood1040" />
    <feComposite
       in="flood"
       in2="SourceGraphic"
       operator="in"
       result="composite1"
       id="feComposite1042" />
    <feGaussianBlur
       in="composite"
       result="blur"
       stdDeviation="1.5"
       id="feGaussianBlur1044" />
    <feOffset
       dx="1.5"
       dy="1.5"
       result="offset"
       id="feOffset1046" />
    <feComposite
       in="SourceGraphic"
       in2="offset"
       operator="over"
       result="composite2"
       id="feComposite1048" />
  </filter>
  <path
     d="m34.837365 5.00045h131.100135l53.06463 54.048418-.15712 187.915102h-184.007645z"
     fill="url(#c)"
     filter="url(#d)"
     id="path1051" />
  <path
     d="m219.32937 59.651599c.12627 0-7.3236-6.060915-11.49048-8.207489-4.16688-2.146575-8.94112-3.519572-13.63706-3.535535-20.02578-.06808-20.07678.126269-20.07678.126269s-.39604.58032-.12627-24.243661c.0311-2.86224-1.51524-6.944799-2.65166-9.47018-2.24321-4.3554815-5.80837-9.8489872-5.80837-9.8489872"
     fill="url(#b)"
     filter="url(#e)"
     id="path1053" />
  <g
     fill="none"
     id="g1065">
    <path
       d="m165.55869 4.7479137 53.82226 54.9323013"
       stroke="#c2c2c2"
       stroke-linecap="round"
       stroke-linejoin="round"
       stroke-miterlimit="0"
       id="path1055" />
    <path
       d="m219.38095 59.680215.0323 187.851965h-184.954662"
       stroke="#878787"
       stroke-linecap="round"
       stroke-linejoin="round"
       stroke-miterlimit="0"
       stroke-width="2"
       id="path1057" />
    <path
       d="m34.458588 247.53218-.000001-242.9105354h131.100133"
       stroke="#b6b6b6"
       stroke-linecap="round"
       stroke-linejoin="round"
       stroke-miterlimit="0"
       stroke-width="2"
       id="path1059" />
    <path
       d="m219.32937 59.651603c.12627 0-7.3236-6.060915-11.49048-8.207489-4.16688-2.146575-8.94112-3.519572-13.63706-3.535535-20.02578-.06808-20.07678.126269-20.07678.126269"
       stroke="#878787"
       stroke-linecap="round"
       stroke-width="2"
       visibility="hidden"
       id="path1061" />
    <path
       d="m174.12505 48.034848s-.39604.58032-.12627-24.243661c.0311-2.86224-1.51524-6.944799-2.65166-9.47018-2.24321-4.3554813-5.80837-9.848987-5.80837-9.848987"
       stroke="#b6b6b6"
       stroke-linecap="round"
       stroke-width="2"
       visibility="hidden"
       id="path1063" />
  </g>
  <path
     d="m17.142857 168.14285h105v54.285713h-105z"
     fill="url(#g)"
     filter="url(#f)"
     stroke="#060"
     stroke-width="2.3"
     transform="matrix(1.3025271 0 0 .86324706 -5.165627 -125.56827)"
     id="path1067" />
  <g
     fill="#fff"
     id="g1075">
    <path
       d="m73.900627 28.344872h9.570313l6.640625 15.605468 6.679687-15.605468h9.550778v29.160156h-7.109372v-21.328125l-6.71875 15.722656h-4.765625l-6.71875-15.722656v21.328125h-7.128906z"
       id="path1071" />
    <path
       d="m113.74438 28.344872h7.51953v23.476562h13.20312v5.683594h-20.72265z"
       id="path1073" />
    <path
       fill-rule="nonzero"
       d="M 69.106943,57.784284 H 60.209307 L 54.445875,46.635306 52.111941,48.02933 v 9.754954 h -7.91956 v -29.16 h 7.91956 v 12.663579 c 0.33236,-0.637203 0.714469,-1.274933 1.14633,-1.913191 0.43186,-0.638278 0.854188,-1.243188 1.267006,-1.814767 l 6.12225,-8.935621 h 8.618137 l -9.196077,13.063694 9.037356,16.096306"
       vector-effect="none"
       id="path34"
       style="fill:url(#linearGradient1594);fill-opacity:1;stroke-width:0.203228" />
  </g>
  <g
     filter="url(#h)"
     stroke="#415a75"
     stroke-linecap="round"
     stroke-linejoin="round"
     transform="matrix(5.8214285 0 0 5.8214285 59.428575 56.060321)"
     id="g1089">
    <path
       d="m2.3679157 10.367915 6.4127726 15.444072 7.0525377-15.300041 5.798858-.02194"
       fill="none"
       stroke-width="1.34033"
       id="path1077" />
    <g
       fill="#eeeeec"
       fill-rule="evenodd"
       id="g1087">
      <path
         d="m4.5 12.5a1 1 0 1 1 -2 0 1 1 0 1 1 2 0z"
         stroke-width=".789474"
         transform="matrix(1.6977509 0 0 1.6977509 -3.574213 -10.853971)"
         id="path1079" />
      <path
         d="m4.5 12.5a1 1 0 1 1 -2 0 1 1 0 1 1 2 0z"
         stroke-width="1.052632"
         transform="matrix(1.6977509 0 0 1.6977509 2.859584 3.780471)"
         id="path1081" />
      <path
         d="m4.5 12.5a1 1 0 1 1 -2 0 1 1 0 1 1 2 0z"
         stroke-width=".789474"
         transform="matrix(1.6977509 0 0 1.6977509 9.711911 -10.7459)"
         id="path1083" />
      <path
         d="m4.5 12.5a1 1 0 1 1 -2 0 1 1 0 1 1 2 0z"
         stroke-width=".789474"
         transform="matrix(1.6977509 0 0 1.6977509 15.689956 -10.731884)"
         id="path1085" />
    </g>
  </g>
</svg>
