<?xml version="1.0" encoding="UTF-8" standalone="no"?>
<svg
   enable-background="new"
   height="256"
   width="256"
   version="1.1"
   id="svg157"
   sodipodi:docname="qgis-qml.svg"
   inkscape:version="1.2.2 (b0a8486541, 2022-12-01)"
   xmlns:inkscape="http://www.inkscape.org/namespaces/inkscape"
   xmlns:sodipodi="http://sodipodi.sourceforge.net/DTD/sodipodi-0.dtd"
   xmlns:xlink="http://www.w3.org/1999/xlink"
   xmlns="http://www.w3.org/2000/svg"
   xmlns:svg="http://www.w3.org/2000/svg">
  <defs
     id="defs161">
    <linearGradient
       id="path107_1_"
       gradientUnits="userSpaceOnUse"
       x1="859.55811"
       y1="299.23419"
       x2="949.10889"
       y2="299.23419"
       gradientTransform="matrix(0.9456,0.3253,0.3577,-0.9338,-616.9904,551.1069)">
		<stop
   offset="0"
   style="stop-color:#EF2929;stop-opacity:0"
   id="stop380" />

		<stop
   offset="1"
   style="stop-color:#EF2929"
   id="stop382" />

	</linearGradient>
    <linearGradient
       id="path109_1_"
       gradientUnits="userSpaceOnUse"
       x1="859.66071"
       y1="322.92441"
       x2="949.21149"
       y2="322.92441"
       gradientTransform="matrix(0.9456,0.3253,0.3577,-0.9338,-616.9904,551.1069)">
		<stop
   offset="0"
   style="stop-color:#729FCF;stop-opacity:0"
   id="stop386" />

		<stop
   offset="0.7"
   style="stop-color:#729FCF"
   id="stop388" />

	</linearGradient>
    <linearGradient
       id="path111_1_"
       gradientUnits="userSpaceOnUse"
       x1="859.65692"
       y1="346.59399"
       x2="949.20758"
       y2="346.59399"
       gradientTransform="matrix(0.9456,0.3253,0.3577,-0.9338,-616.9904,551.1069)">
		<stop
   offset="0"
   style="stop-color:#FCE94F;stop-opacity:0"
   id="stop392" />

		<stop
   offset="0.7"
   style="stop-color:#FCE94F"
   id="stop394" />

	</linearGradient>
    <linearGradient
       id="path115_1_"
       gradientUnits="userSpaceOnUse"
       x1="194.8382"
       y1="-48.098701"
       x2="166.5696"
       y2="9.4425001"
       gradientTransform="matrix(0.6792,-0.7339,-0.7339,-0.6792,221.8257,674.6393)">
			<stop
   offset="0"
   style="stop-color:#E5B366"
   id="stop398" />

			<stop
   offset="1"
   style="stop-color:#FFFFFF"
   id="stop400" />

		</linearGradient>
    <linearGradient
       id="path145_1_"
       gradientUnits="userSpaceOnUse"
       x1="716.11981"
       y1="118.2746"
       x2="701.04303"
       y2="133.9888"
       gradientTransform="matrix(1,0,0,-1,-295.1477,650.0895)">
		<stop
   offset="0"
   style="stop-color:#C07C11"
   id="stop418" />

		<stop
   offset="1"
   style="stop-color:#E8B86D"
   id="stop420" />

	</linearGradient>
  </defs>
  <sodipodi:namedview
     id="namedview159"
     pagecolor="#ffffff"
     bordercolor="#000000"
     borderopacity="0.25"
     inkscape:showpageshadow="2"
     inkscape:pageopacity="0.0"
     inkscape:pagecheckerboard="0"
     inkscape:deskcolor="#d1d1d1"
     showgrid="false"
     inkscape:zoom="3.2460938"
     inkscape:cx="128.30806"
     inkscape:cy="128.92419"
     inkscape:window-width="1920"
     inkscape:window-height="997"
     inkscape:window-x="0"
     inkscape:window-y="0"
     inkscape:window-maximized="1"
     inkscape:current-layer="svg157"
     inkscape:lockguides="true" />
  <linearGradient
     id="a">
    <stop
       offset="0"
       stop-color="#f5f5f5"
       id="stop2" />
    <stop
       offset="1"
       stop-color="#fff"
       id="stop4" />
  </linearGradient>
  <filter
     id="b"
     color-interpolation-filters="sRGB"
     x="-0.052127235"
     y="-0.039675402"
     width="1.1140283"
     height="1.0867899">
    <feFlood
       flood-opacity=".851449"
       result="flood"
       id="feFlood7" />
    <feComposite
       in="flood"
       in2="SourceGraphic"
       operator="in"
       result="composite1"
       id="feComposite9" />
    <feGaussianBlur
       result="blur"
       stdDeviation="4"
       id="feGaussianBlur11" />
    <feOffset
       dx="1.8"
       dy="1.8"
       result="offset"
       id="feOffset13" />
    <feComposite
       in="SourceGraphic"
       in2="offset"
       operator="over"
       result="composite2"
       id="feComposite15" />
  </filter>
  <filter
     id="c"
     color-interpolation-filters="sRGB"
     x="-0.17846452"
     y="-0.17397739"
     width="1.3903911"
     height="1.3805755">
    <feFlood
       flood-opacity=".775362"
       result="flood"
       id="feFlood18" />
    <feComposite
       in="flood"
       in2="SourceGraphic"
       operator="in"
       result="composite1"
       id="feComposite20" />
    <feGaussianBlur
       result="blur"
       stdDeviation="4"
       id="feGaussianBlur22" />
    <feOffset
       dx="1.8"
       dy="1.8"
       result="offset"
       id="feOffset24" />
    <feComposite
       in="SourceGraphic"
       in2="offset"
       operator="over"
       result="composite2"
       id="feComposite26" />
  </filter>
  <filter
     id="d"
     color-interpolation-filters="sRGB"
     x="-0.052095237"
     y="-0.10076316"
     width="1.1327619"
     height="1.2567895">
    <feFlood
       flood-opacity=".419"
       result="flood"
       id="feFlood29" />
    <feComposite
       in="flood"
       in2="SourceGraphic"
       operator="in"
       result="composite1"
       id="feComposite31" />
    <feGaussianBlur
       result="blur"
       stdDeviation="1.8"
       id="feGaussianBlur33" />
    <feOffset
       dx="3"
       dy="3"
       result="offset"
       id="feOffset35" />
    <feComposite
       in="SourceGraphic"
       in2="offset"
       operator="over"
       result="composite2"
       id="feComposite37" />
  </filter>
  <linearGradient
     id="e"
     gradientUnits="userSpaceOnUse"
     x1="120.7066"
     x2="123.01035"
     xlink:href="#a"
     y1="244.55363"
     y2="121.55801" />
  <linearGradient
     gradientUnits="userSpaceOnUse"
     x1="-19.831818"
     x2="384.75043"
     xlink:href="#a"
     y1="221.75748"
     y2="222.76762"
     id="linearGradient41" />
  <linearGradient
     id="f"
     gradientUnits="userSpaceOnUse"
     x1="190.52345"
     x2="180.14067"
     y1="30.799114"
     y2="41.59544">
    <stop
       offset="0"
       stop-color="#afafaf"
       id="stop43" />
    <stop
       offset="1"
       stop-color="#fff"
       id="stop45" />
  </linearGradient>
  <linearGradient
     id="g"
     gradientUnits="userSpaceOnUse"
     x1="61.441303"
     x2="63.125427"
     y1="161.2032"
     y2="273.62759">
    <stop
       offset="0"
       stop-color="#129300"
       id="stop48" />
    <stop
       offset="1"
       stop-color="#e4f363"
       id="stop50" />
  </linearGradient>
  <filter
     id="h"
     color-interpolation-filters="sRGB"
     x="-0.02500305"
     y="-0.050001874"
     width="1.0500068"
     height="1.1000037">
    <feBlend
       in2="BackgroundImage"
       mode="darken"
       id="feBlend53" />
  </filter>
  <linearGradient
     id="i"
     gradientTransform="matrix(1 0 0 -1 -768 -604)"
     gradientUnits="userSpaceOnUse"
     x1="814.14648"
     x2="803.48657"
     y1="-658.55518"
     y2="-642.56531">
    <stop
       offset="0"
       stop-color="#edd400"
       id="stop56" />
    <stop
       offset="1"
       stop-color="#fff17a"
       id="stop58" />
  </linearGradient>
  <filter
     id="k"
     color-interpolation-filters="sRGB"
     height="1.3509795"
     width="1.3509799"
     x="-0.17548996"
     y="-0.17548974">
    <feGaussianBlur
       stdDeviation="5.0148737"
       id="feGaussianBlur64" />
  </filter>
  <linearGradient
     id="l"
     gradientUnits="userSpaceOnUse"
     x1="191.96126"
     x2="163.69266"
     y1="682.30573"
     y2="624.76453">
    <stop
       offset="0"
       stop-color="#e5b366"
       id="stop67" />
    <stop
       offset="1"
       stop-color="#fff"
       id="stop69" />
  </linearGradient>
  <linearGradient
     id="m"
     gradientUnits="userSpaceOnUse"
     x1="447.97855"
     x2="432.90179"
     y1="540.95679"
     y2="525.24249">
    <stop
       offset="0"
       stop-color="#c07c11"
       id="stop72" />
    <stop
       offset="1"
       stop-color="#e8b86d"
       id="stop74" />
  </linearGradient>
  <path
     d="m34.837365 5.00045h131.100135l53.06463 54.048418-.15712 187.915102h-184.007645z"
     fill="url(#e)"
     filter="url(#b)"
     id="path77" />
  <path
     d="m219.32937 59.651599c.12627 0-7.3236-6.060915-11.49048-8.207489-4.16688-2.146575-8.94112-3.519572-13.63706-3.535535-20.02578-.06808-20.07678.126269-20.07678.126269s-.39604.58032-.12627-24.243661c.0311-2.86224-1.51524-6.944799-2.65166-9.47018-2.24321-4.3554815-5.80837-9.8489872-5.80837-9.8489872"
     fill="url(#f)"
     filter="url(#c)"
     id="path79" />
  <g
     fill="none"
     stroke-linecap="round"
     id="g91">
    <path
       d="m165.55869 4.7479137 53.82226 54.9323013"
       stroke="#c2c2c2"
       stroke-linejoin="round"
       stroke-miterlimit="0"
       id="path81" />
    <path
       d="m219.38095 59.680215.0323 187.851965h-184.954662"
       stroke="#878787"
       stroke-linejoin="round"
       stroke-miterlimit="0"
       stroke-width="2"
       id="path83" />
    <path
       d="m34.458588 247.53218-.000001-242.9105354h131.100133"
       stroke="#b6b6b6"
       stroke-linejoin="round"
       stroke-miterlimit="0"
       stroke-width="2"
       id="path85" />
    <path
       d="m219.32937 59.651603c.12627 0-7.3236-6.060915-11.49048-8.207489-4.16688-2.146575-8.94112-3.519572-13.63706-3.535535-20.02578-.06808-20.07678.126269-20.07678.126269"
       stroke="#878787"
       stroke-width="2"
       visibility="hidden"
       id="path87" />
    <path
       d="m174.12505 48.034848s-.39604.58032-.12627-24.243661c.0311-2.86224-1.51524-6.944799-2.65166-9.47018-2.24321-4.3554813-5.80837-9.848987-5.80837-9.848987"
       stroke="#b6b6b6"
       stroke-width="2"
       visibility="hidden"
       id="path89" />
  </g>
  <path
     d="m17.142857 168.14285h105v54.285713h-105z"
     fill="url(#g)"
     filter="url(#d)"
     stroke="#060"
     stroke-width="2.3"
     transform="matrix(1.3025271 0 0 .86324706 -5.165627 -125.56827)"
     id="path93" />
  <g
     enable-background="new"
     filter="url(#h)"
     transform="matrix(1.6334631 0 0 1.6334631 111.36063 143.90065)"
     id="g105">
    <path
       d="m5.35 40 10.661-13.326h42.637v26.652h-42.637z"
       fill="url(#i)"
       stroke="#c4a000"
       stroke-linecap="round"
       stroke-linejoin="round"
       stroke-width="2.6653"
       id="path95" />
    <g
       fill="#2e3436"
       id="g103">
      <path
         d="m27.819 46.065v.357h-3.207c-.225-.338-.338-.718-.338-1.141-1.04 1.083-2.194 1.625-3.459 1.625-1.084 0-1.97-.357-2.658-1.075-.535-.575-.802-1.356-.802-2.341 0-2.012 1.118-3.208 3.354-3.587l1.181-.211c.956-.154 1.54-.28 1.751-.38.014-.015.049-.034.105-.062.338-.184.506-.478.506-.886 0-.76-.57-1.139-1.709-1.139-.956 0-1.568.225-1.835.675l-.19.507-.063.381h-2.848c.182-2.631 1.807-3.946 4.873-3.946 3.108 0 4.662 1.168 4.662 3.502v6.328c0 .479.183.9.549 1.266.043.042.086.085.128.127zm-3.566-4.218v-.803c-.267.128-.682.247-1.244.358l-1.013.19c-.929.196-1.47.548-1.624 1.055l-.064.507c0 .688.344 1.124 1.034 1.308.169.042.359.062.569.062 1.223 0 1.969-.584 2.237-1.751.07-.28.105-.589.105-.926z"
         id="path97" />
      <path
         d="m31.279 31.045h2.954v5.464c.702-1.111 1.751-1.667 3.143-1.667 1.195 0 2.223.422 3.081 1.265.183.183.346.374.486.57.816 1.182 1.224 2.582 1.224 4.199 0 1.926-.557 3.479-1.668 4.663-.886.913-1.926 1.371-3.121 1.371-1.393 0-2.44-.549-3.145-1.646v1.16h-2.953zm5.443 6.266c-.931 0-1.624.499-2.09 1.498l-.253.737c-.1.407-.148.837-.148 1.287 0 1.533.422 2.603 1.266 3.206.352.269.759.4 1.224.4.899 0 1.589-.484 2.067-1.455.281-.604.423-1.301.423-2.088 0-1.435-.395-2.475-1.182-3.123-.392-.308-.831-.462-1.307-.462z"
         id="path99" />
      <path
         d="m53.935 39.293h-2.826c-.238-1.083-.669-1.729-1.286-1.942l-.592-.126c-.069 0-.147 0-.232 0-.871 0-1.482.324-1.835.971-.38.716-.568 1.638-.568 2.764 0 1.716.463 2.819 1.392 3.312.311.168.646.253 1.012.253.844 0 1.447-.387 1.815-1.161.111-.252.209-.547.294-.884h2.827c-.184 1.741-.95 3.002-2.299 3.776-.773.436-1.659.653-2.658.653-2.224 0-3.77-.871-4.642-2.616-.463-.929-.696-2.039-.696-3.334 0-2.629.837-4.437 2.511-5.422.801-.464 1.757-.696 2.869-.696 1.941 0 3.34.688 4.198 2.068.267.464.464.977.592 1.54.053.268.097.548.124.844z"
         id="path101" />
    </g>
  </g>
  <g
     fill="#fff"
     id="g155">
    <path
       d="m54.674328 56.188366h-.585938c-4.8047-.000001-8.541675-1.328124-11.210937-3.984375-2.669274-2.656244-4.003908-6.354157-4.003906-11.09375-.000002-4.726543 1.328121-8.430967 3.984375-11.113281 2.669262-2.682264 6.341133-4.023408 11.015625-4.023438 4.72654.00003 8.404922 1.328154 11.035156 3.984375 2.643198 2.656273 3.964812 6.373717 3.964844 11.152344-.000032 3.281261-.703157 6.106779-2.109375 8.476562-1.393258 2.369796-3.404975 4.153648-6.035157 5.351563l5.878907 6.5625h-7.167969zm-.800781-24.765625c-2.291682.000024-4.069024.846377-5.332032 2.539062-1.263031 1.692729-1.894541 4.075539-1.894531 7.148438-.00001 3.125011.618479 5.520842 1.855469 7.1875 1.236966 1.653651 3.027329 2.480474 5.371094 2.480469 2.304668.000005 4.08852-.846349 5.351562-2.539063 1.262997-1.692699 1.894507-4.068999 1.894531-7.128906-.000024-3.072899-.631534-5.455709-1.894531-7.148438-1.263042-1.692685-3.046894-2.539038-5.351562-2.539062"
       id="path149" />
    <path
       d="m74.537609 26.500866h9.570313l6.640625 15.605469 6.679687-15.605469h9.550786v29.160156h-7.10938v-21.328125l-6.71875 15.722656h-4.765625l-6.71875-15.722656v21.328125h-7.128906z"
       id="path151" />
    <path
       d="m114.38136 26.500866h7.51953v23.476562h13.20313v5.683594h-20.72266z"
       id="path153" />
  </g>
  <g
     id="g147"
     transform="matrix(1.0000043,0,0,0.99998931,-247.1493,-410.08316)"
     enable-background="new    ">
	
		<linearGradient
   id="linearGradient572"
   gradientUnits="userSpaceOnUse"
   x1="859.55811"
   y1="299.23419"
   x2="949.10889"
   y2="299.23419"
   gradientTransform="matrix(0.9456,0.3253,0.3577,-0.9338,-616.9904,551.1069)">
		<stop
   offset="0"
   style="stop-color:#EF2929;stop-opacity:0"
   id="stop568" />

		<stop
   offset="1"
   style="stop-color:#EF2929"
   id="stop570" />

	</linearGradient>

	<path
   id="path107"
   fill="url(#path107_1_)"
   d="m 307.124,540.149 84.682,29.127 -8.501,22.193 -84.682,-29.126 z"
   style="fill:url(#path107_1_)" />

	
		<linearGradient
   id="linearGradient579"
   gradientUnits="userSpaceOnUse"
   x1="859.66071"
   y1="322.92441"
   x2="949.21149"
   y2="322.92441"
   gradientTransform="matrix(0.9456,0.3253,0.3577,-0.9338,-616.9904,551.1069)">
		<stop
   offset="0"
   style="stop-color:#729FCF;stop-opacity:0"
   id="stop575" />

		<stop
   offset="0.7"
   style="stop-color:#729FCF"
   id="stop577" />

	</linearGradient>

	<path
   id="path109"
   fill="url(#path109_1_)"
   d="m 315.696,518.06 84.682,29.126 -8.501,22.193 -84.682,-29.127 z"
   style="fill:url(#path109_1_)" />

	
		<linearGradient
   id="linearGradient586"
   gradientUnits="userSpaceOnUse"
   x1="859.65692"
   y1="346.59399"
   x2="949.20758"
   y2="346.59399"
   gradientTransform="matrix(0.9456,0.3253,0.3577,-0.9338,-616.9904,551.1069)">
		<stop
   offset="0"
   style="stop-color:#FCE94F;stop-opacity:0"
   id="stop582" />

		<stop
   offset="0.7"
   style="stop-color:#FCE94F"
   id="stop584" />

	</linearGradient>

	<path
   id="path111"
   fill="url(#path111_1_)"
   d="m 324.159,495.955 84.682,29.126 -8.501,22.193 -84.682,-29.126 z"
   style="fill:url(#path111_1_)" />

	<g
   id="g143">
		
			<linearGradient
   id="linearGradient593"
   gradientUnits="userSpaceOnUse"
   x1="194.8382"
   y1="-48.098701"
   x2="166.5696"
   y2="9.4425001"
   gradientTransform="matrix(0.6792,-0.7339,-0.7339,-0.6792,221.8257,674.6393)">
			<stop
   offset="0"
   style="stop-color:#E5B366"
   id="stop589" />

			<stop
   offset="1"
   style="stop-color:#FFFFFF"
   id="stop591" />

		</linearGradient>

		<path
   id="path115"
   fill="url(#path115_1_)"
   stroke="#c98d2c"
   stroke-width="1.9"
   d="m 342.649,554.406 24.136,-26.081 40.105,37.114 -24.136,26.081 z"
   style="fill:url(#path115_1_)" />

		<path
   id="path117"
   fill="none"
   stroke="#c98d2c"
   stroke-width="1.5"
   d="m 346.088,556.737 24.398,-25.839" />

		<path
   id="path119"
   fill="none"
   stroke="#c98d2c"
   stroke-width="1.5"
   d="m 351.811,562.033 24.398,-25.839" />

		<path
   id="path121"
   fill="none"
   stroke="#c98d2c"
   stroke-width="1.5"
   d="M 354.672,564.681 379.07,538.842" />

		<path
   id="path123"
   fill="none"
   stroke="#c98d2c"
   stroke-width="1.5"
   d="m 360.395,569.977 24.398,-25.839" />

		<path
   id="path125"
   fill="none"
   stroke="#c98d2c"
   stroke-width="1.5"
   d="m 366.118,575.274 24.398,-25.839" />

		<path
   id="path127"
   fill="none"
   stroke="#c98d2c"
   stroke-width="1.5"
   d="m 368.98,577.922 24.398,-25.839" />

		<path
   id="path129"
   fill="none"
   stroke="#c98d2c"
   stroke-width="1.5"
   d="m 374.703,583.218 24.398,-25.839" />

		<path
   id="path131"
   fill="none"
   stroke="#c98d2c"
   stroke-width="1.5"
   d="m 377.564,585.866 24.398,-25.839" />

		<path
   id="path133"
   fill="none"
   stroke="#c98d2c"
   stroke-width="1.5"
   d="m 348.949,559.385 24.398,-25.839" />

		<path
   id="path135"
   fill="none"
   stroke="#c98d2c"
   stroke-width="1.5"
   d="M 357.534,567.329 381.932,541.49" />

		<path
   id="path137"
   fill="none"
   stroke="#c98d2c"
   stroke-width="1.5"
   d="m 363.257,572.626 24.398,-25.839" />

		<path
   id="path139"
   fill="none"
   stroke="#c98d2c"
   stroke-width="1.5"
   d="m 371.841,580.57 24.398,-25.839" />

		<path
   id="path141"
   fill="none"
   stroke="#c98d2c"
   stroke-width="1.5"
   d="m 380.426,588.514 24.398,-25.839" />

	</g>

	
		<linearGradient
   id="linearGradient614"
   gradientUnits="userSpaceOnUse"
   x1="716.11981"
   y1="118.2746"
   x2="701.04303"
   y2="133.9888"
   gradientTransform="matrix(1,0,0,-1,-295.1477,650.0895)">
		<stop
   offset="0"
   style="stop-color:#C07C11"
   id="stop610" />

		<stop
   offset="1"
   style="stop-color:#E8B86D"
   id="stop612" />

	</linearGradient>

	<path
   id="path145"
   fill="url(#path145_1_)"
   stroke="#965f08"
   stroke-width="2.2"
   d="m 367,527.826 40.536,37.143 c 0,0 3.675,-3.059 1.071,-9.464 -2.109,-5.189 -9.643,-13.393 -9.643,-13.393 l 37.857,-38.393 c 0,0 2.226,-5.838 -1.25,-8.929 -3.699,-3.29 -8.393,-0.357 -8.393,-0.357 l -35.714,40.179 c 0,0 -10.734,-9.101 -16.964,-10.179 -5.761,-0.996 -7.5,3.393 -7.5,3.393 z"
   style="fill:url(#path145_1_)" />

</g>
</svg>
