<?xml version="1.0" encoding="UTF-8" standalone="no"?>
<svg
   version="1.1"
   id="图层_1"
   x="0px"
   y="0px"
   width="256"
   height="256"
   viewBox="0 0 256 256"
   enable-background="new 0 0 256 256"
   xml:space="preserve"
   sodipodi:docname="qgis-qpt.svg"
   inkscape:version="1.2.2 (b0a8486541, 2022-12-01)"
   xmlns:inkscape="http://www.inkscape.org/namespaces/inkscape"
   xmlns:sodipodi="http://sodipodi.sourceforge.net/DTD/sodipodi-0.dtd"
   xmlns="http://www.w3.org/2000/svg"
   xmlns:svg="http://www.w3.org/2000/svg"><sodipodi:namedview
   id="namedview14010"
   pagecolor="#ffffff"
   bordercolor="#000000"
   borderopacity="0.25"
   inkscape:showpageshadow="2"
   inkscape:pageopacity="0.0"
   inkscape:pagecheckerboard="0"
   inkscape:deskcolor="#d1d1d1"
   showgrid="false"
   inkscape:zoom="3.2460938"
   inkscape:cx="128.46209"
   inkscape:cy="129.23225"
   inkscape:window-width="1920"
   inkscape:window-height="997"
   inkscape:window-x="0"
   inkscape:window-y="0"
   inkscape:window-maximized="1"
   inkscape:current-layer="图层_1" /><defs
   id="defs13266" />
<filter
   id="q"
   color-interpolation-filters="sRGB"
   x="0"
   width="1"
   y="-inf"
   height="inf">
	<feBlend
   mode="darken"
   in2="BackgroundImage"
   id="feBlend13072" />
</filter>
<filter
   id="p"
   color-interpolation-filters="sRGB"
   x="0"
   width="1"
   y="-inf"
   height="inf">
	<feBlend
   mode="darken"
   in2="BackgroundImage"
   id="feBlend13075" />
</filter>
<filter
   id="o"
   color-interpolation-filters="sRGB"
   x="0"
   width="1"
   y="-inf"
   height="inf">
	<feBlend
   mode="darken"
   in2="BackgroundImage"
   id="feBlend13078" />
</filter>
<filter
   id="n"
   color-interpolation-filters="sRGB"
   x="0"
   width="1"
   y="-inf"
   height="inf">
	<feBlend
   mode="darken"
   in2="BackgroundImage"
   id="feBlend13081" />
</filter>
<filter
   id="m"
   color-interpolation-filters="sRGB"
   x="0"
   width="1"
   y="-inf"
   height="inf">
	<feBlend
   mode="darken"
   in2="BackgroundImage"
   id="feBlend13084" />
</filter>
<filter
   id="l"
   color-interpolation-filters="sRGB"
   x="0"
   width="1"
   y="-inf"
   height="inf">
	<feBlend
   mode="darken"
   in2="BackgroundImage"
   id="feBlend13087" />
</filter>
<filter
   id="k"
   color-interpolation-filters="sRGB"
   x="0"
   width="1"
   y="-inf"
   height="inf">
	<feBlend
   mode="darken"
   in2="BackgroundImage"
   id="feBlend13090" />
</filter>
<filter
   id="j"
   color-interpolation-filters="sRGB"
   x="0"
   width="1"
   y="-inf"
   height="inf">
	<feBlend
   mode="darken"
   in2="BackgroundImage"
   id="feBlend13093" />
</filter>
<filter
   id="i"
   color-interpolation-filters="sRGB"
   x="0"
   width="1"
   y="-inf"
   height="inf">
	<feBlend
   mode="darken"
   in2="BackgroundImage"
   id="feBlend13096" />
</filter>
<filter
   id="h"
   color-interpolation-filters="sRGB"
   x="0"
   width="1"
   y="-inf"
   height="inf">
	<feBlend
   mode="darken"
   in2="BackgroundImage"
   id="feBlend13099" />
</filter>
<filter
   id="g"
   color-interpolation-filters="sRGB"
   x="-0.0073518598"
   y="-0.0094710424"
   width="1.0147037"
   height="1.0189421">
	<feBlend
   mode="darken"
   in2="BackgroundImage"
   id="feBlend13102" />
</filter>
<filter
   id="e"
   color-interpolation-filters="sRGB"
   x="-0.033727241"
   y="-0.036372619"
   width="1.0769999"
   height="1.0830394">
	<feFlood
   result="flood"
   flood-opacity=".5"
   id="feFlood13105" />
	<feComposite
   operator="in"
   in2="SourceGraphic"
   in="flood"
   result="composite1"
   id="feComposite13107" />
	<feGaussianBlur
   stdDeviation="2"
   result="blur"
   id="feGaussianBlur13109" />
	<feOffset
   dy="1.5"
   dx="1.5"
   result="offset"
   id="feOffset13111" />
	<feComposite
   operator="over"
   in2="offset"
   in="SourceGraphic"
   result="composite2"
   id="feComposite13113" />
</filter>
<filter
   id="d"
   color-interpolation-filters="sRGB"
   x="-0.039995612"
   y="-0.1167257"
   width="1.1019267"
   height="1.2974692">
	<feFlood
   result="flood"
   flood-opacity=".419"
   id="feFlood13116" />
	<feComposite
   operator="in"
   in2="SourceGraphic"
   in="flood"
   result="composite1"
   id="feComposite13118" />
	<feGaussianBlur
   stdDeviation="1.8"
   result="blur"
   id="feGaussianBlur13120" />
	<feOffset
   dy="3"
   dx="3"
   result="offset"
   id="feOffset13122" />
	<feComposite
   operator="over"
   in2="offset"
   in="SourceGraphic"
   result="composite2"
   id="feComposite13124" />
</filter>
<filter
   id="c"
   color-interpolation-filters="sRGB"
   x="-0.1784666"
   y="-0.17397608"
   width="1.3903957"
   height="1.3805727">
	<feFlood
   result="flood"
   flood-opacity=".775362"
   id="feFlood13127" />
	<feComposite
   operator="in"
   in2="SourceGraphic"
   in="flood"
   result="composite1"
   id="feComposite13129" />
	<feGaussianBlur
   stdDeviation="4"
   result="blur"
   id="feGaussianBlur13131" />
	<feOffset
   dy="1.8"
   dx="1.8"
   result="offset"
   id="feOffset13133" />
	<feComposite
   operator="over"
   in2="offset"
   in="SourceGraphic"
   result="composite2"
   id="feComposite13135" />
</filter>
<filter
   id="b"
   color-interpolation-filters="sRGB"
   x="-0.052127169"
   y="-0.039675324"
   width="1.1140282"
   height="1.0867898">
	<feFlood
   result="flood"
   flood-opacity=".851449"
   id="feFlood13138" />
	<feComposite
   operator="in"
   in2="SourceGraphic"
   in="flood"
   result="composite1"
   id="feComposite13140" />
	<feGaussianBlur
   stdDeviation="4"
   result="blur"
   id="feGaussianBlur13142" />
	<feOffset
   dy="1.8"
   dx="1.8"
   result="offset"
   id="feOffset13144" />
	<feComposite
   operator="over"
   in2="offset"
   in="SourceGraphic"
   result="composite2"
   id="feComposite13146" />
</filter>
<g
   filter="url(#b)"
   id="g13156"
   inkscape:label="g13156">
	
		<linearGradient
   id="SVGID_1_"
   gradientUnits="userSpaceOnUse"
   x1="124.6189"
   y1="12.3731"
   x2="126.9227"
   y2="135.3687"
   gradientTransform="matrix(1,0,0,-1,0,257)">
		<stop
   offset="0"
   style="stop-color:#F5F5F5"
   id="stop13149" />
		<stop
   offset="1"
   style="stop-color:#FFFFFF"
   id="stop13151" />
	</linearGradient>
	<polygon
   fill="url(#SVGID_1_)"
   points="34.837,246.964 34.837,5 165.938,5 219.002,59.049 218.845,246.964 "
   id="polygon13154"
   style="fill:url(#SVGID_1_)" />
</g>
<g
   filter="url(#c)"
   id="g13165"
   inkscape:label="g13165">
	
		<linearGradient
   id="SVGID_2_"
   gradientUnits="userSpaceOnUse"
   x1="192.1472"
   y1="224.6394"
   x2="181.7644"
   y2="213.843"
   gradientTransform="matrix(1,0,0,-1,0,257)">
		<stop
   offset="0"
   style="stop-color:#AFAFAF"
   id="stop13158" />
		<stop
   offset="1"
   style="stop-color:#FFFFFF"
   id="stop13160" />
	</linearGradient>
	<path
   fill="url(#SVGID_2_)"
   d="m 219.329,59.652 c 0.126,0 -7.324,-6.061 -11.49,-8.207 -4.167,-2.147 -8.941,-3.52 -13.637,-3.536 -20.026,-0.068 -20.077,0.126 -20.077,0.126 0,0 -0.396,0.58 -0.126,-24.244 0.031,-2.862 -1.515,-6.945 -2.652,-9.47 -2.243,-4.355 -5.808,-9.849 -5.808,-9.849"
   id="path13163"
   style="fill:url(#SVGID_2_)" />
</g>
<g
   id="g13177"
   inkscape:label="g13177">
	<path
   fill="none"
   stroke="#c2c2c2"
   stroke-linecap="round"
   stroke-linejoin="round"
   stroke-miterlimit="1"
   d="M 165.559,4.748 219.381,59.68"
   id="path13167" />
	<path
   fill="none"
   stroke="#878787"
   stroke-width="2"
   stroke-linecap="round"
   stroke-linejoin="round"
   stroke-miterlimit="1"
   d="m 219.381,59.68 0.032,187.852 H 34.459"
   id="path13169" />
	<path
   fill="none"
   stroke="#b6b6b6"
   stroke-width="2"
   stroke-linecap="round"
   stroke-linejoin="round"
   stroke-miterlimit="1"
   d="M 34.459,247.532 V 4.622 h 131.1"
   id="path13171" />
	<path
   display="inline"
   fill="none"
   stroke="#878787"
   stroke-width="2"
   stroke-linecap="round"
   d="m 219.329,59.652 c 0.126,0 -7.324,-6.061 -11.49,-8.207 -4.166,-2.146 -8.941,-3.52 -13.637,-3.536 -20.026,-0.068 -20.077,0.126 -20.077,0.126"
   id="path13173" />
	<path
   display="inline"
   fill="none"
   stroke="#b6b6b6"
   stroke-width="2"
   stroke-linecap="round"
   d="m 174.125,48.035 c 0,0 -0.396,0.58 -0.126,-24.244 0.031,-2.862 -1.515,-6.945 -2.652,-9.47 -2.243,-4.355 -5.808,-9.849 -5.808,-9.849"
   id="path13175" />
</g>
<g
   filter="url(#d)"
   id="g13188">
	
		<linearGradient
   id="SVGID_3_"
   gradientUnits="userSpaceOnUse"
   x1="27.9041"
   y1="53.5354"
   x2="29.588301"
   y2="-58.888901"
   gradientTransform="matrix(1.3025,0,0,-0.8632,48.5329,59.7048)">
		<stop
   offset="0"
   style="stop-color:#129300"
   id="stop13179" />
		<stop
   offset="1"
   style="stop-color:#E4F363"
   id="stop13181" />
	</linearGradient>
	<rect
   x="17.163"
   y="19.580999"
   fill="url(#SVGID_3_)"
   width="136.765"
   height="46.862"
   id="rect13184"
   style="fill:url(#SVGID_3_)" />
	<rect
   x="17.163"
   y="19.580999"
   fill="none"
   stroke="#006600"
   stroke-width="2.3"
   width="136.765"
   height="46.862"
   id="rect13186" />
</g>
<g
   filter="url(#e)"
   id="g13194"
   inkscape:label="g13194">
	<rect
   x="48.174"
   y="88.796997"
   fill="#ffffff"
   width="157.14301"
   height="145.714"
   id="rect13190" />
	<rect
   x="48.174"
   y="88.796997"
   fill="none"
   stroke="#b3b3b3"
   width="157.14301"
   height="145.714"
   id="rect13192" />
</g>
<rect
   x="58.195999"
   y="118.423"
   fill="none"
   width="136.09"
   height="105.655"
   id="rect13196" />
<g
   filter="url(#g)"
   id="g13200"
   inkscape:label="g13200">
	<rect
   x="58.422001"
   y="119.121"
   fill="none"
   stroke="#b0b0de"
   stroke-width="2"
   width="136.02"
   height="105.585"
   id="rect13198" />
</g>
<path
   fill="#b0b0de"
   d="m 57.252,98.958 h 85.863 v 9.091 H 57.252 Z"
   id="path13202" />
<g
   id="g13207"
   inkscape:label="g13207"
   transform="translate(1.3408544,1.2013199)">
	
		
	<g
   id="g4327_1_"
   inkscape:label="g4327">
		<path
   id="path4311_1_"
   fill="#b0b0de"
   d="M 67.828,118.141 H 57.16 v 10.897 l 14.748,12.266 -14.748,18.013 v 15.786 l 22.436,-27.404 31.929,26.555 -54.365,15.114 v 5.189 l 59.042,-16.415 54.811,45.584 h 22.164 v -1.336 l -33.991,-28.27 30.871,-39.059 3.121,16.751 V 143.05 l -1.759,2.225 -33.396,-27.134 h -7.929 l 38.226,31.059 -32.866,41.582 -40.278,-33.263 32.017,-39.376 h -12.888 l -26.817,32.981 z"
   inkscape:label="path4311" />
	</g>
</g>
<g
   id="g13255">
	<path
   fill="#e5e5f4"
   stroke="#b0b0de"
   stroke-width="2"
   d="m 175.128,94.879 h 18.392 v 16.877 h -18.392 z"
   id="path13209" />
	<path
   fill="#ffffff"
   stroke="#b0b0de"
   stroke-width="2.7804"
   d="m 156.716,156.638 h 29.963 v 61.414 h -29.963 z"
   id="path13211" />
	<path
   fill="none"
   stroke="#b0b0de"
   stroke-width="3"
   d="M 66.515,214.119 H 109.51"
   id="path13213" />
	
	
	
	
	
	
	
	
	
	<g
   id="g14149"><line
     fill="none"
     stroke="#b0b0de"
     stroke-width="2"
     x1="160.3"
     y1="189.55901"
     x2="182.33701"
     y2="189.55901"
     id="line13215" /><line
     fill="none"
     stroke="#b0b0de"
     stroke-width="2"
     x1="160.3"
     y1="194.894"
     x2="182.33701"
     y2="194.894"
     id="line13219" /><line
     fill="none"
     stroke="#b0b0de"
     stroke-width="2"
     x1="160.3"
     y1="200.229"
     x2="182.33701"
     y2="200.229"
     id="line13223" /><line
     fill="none"
     stroke="#b0b0de"
     stroke-width="2"
     x1="160.3"
     y1="205.564"
     x2="182.33701"
     y2="205.564"
     id="line13227" /><line
     fill="none"
     stroke="#b0b0de"
     stroke-width="2"
     x1="160.3"
     y1="210.899"
     x2="182.33701"
     y2="210.899"
     id="line13231" /><line
     fill="none"
     stroke="#b0b0de"
     stroke-width="2"
     x1="160.427"
     y1="162.854"
     x2="182.463"
     y2="162.854"
     id="line13235" /><line
     fill="none"
     stroke="#b0b0de"
     stroke-width="2"
     x1="160.427"
     y1="168.188"
     x2="182.463"
     y2="168.188"
     id="line13239" /><line
     fill="none"
     stroke="#b0b0de"
     stroke-width="2"
     x1="160.427"
     y1="173.52299"
     x2="182.463"
     y2="173.52299"
     id="line13243" /><line
     fill="none"
     stroke="#b0b0de"
     stroke-width="2"
     x1="160.427"
     y1="178.858"
     x2="182.463"
     y2="178.858"
     id="line13247" /><line
     fill="none"
     stroke="#b0b0de"
     stroke-width="2"
     x1="160.427"
     y1="184.19299"
     x2="182.463"
     y2="184.19299"
     id="line13251" /></g>
</g>
<g
   id="g13263">
	<path
   fill="#ffffff"
   d="m 57.929,56.934 h -0.586 c -4.805,0 -8.542,-1.328 -11.211,-3.984 -2.669,-2.656 -4.004,-6.354 -4.004,-11.094 0,-4.727 1.328,-8.431 3.984,-11.113 2.669,-2.682 6.341,-4.023 11.016,-4.023 4.727,0 8.405,1.328 11.035,3.984 2.643,2.656 3.965,6.374 3.965,11.152 0,3.281 -0.703,6.107 -2.109,8.477 -1.393,2.37 -3.405,4.154 -6.035,5.352 l 5.879,6.563 H 62.695 Z M 57.128,32.168 c -2.292,0 -4.069,0.846 -5.332,2.539 -1.263,1.693 -1.895,4.076 -1.895,7.148 0,3.125 0.618,5.521 1.855,7.188 1.237,1.654 3.027,2.48 5.371,2.48 2.305,0 4.089,-0.846 5.352,-2.539 1.263,-1.693 1.895,-4.069 1.895,-7.129 0,-3.073 -0.632,-5.456 -1.895,-7.148 -1.263,-1.692 -3.047,-2.538 -5.351,-2.539"
   id="path13257" />
	<path
   fill="#ffffff"
   d="m 77.792,27.247 h 12.48 c 3.711,0 6.556,0.827 8.535,2.48 1.992,1.641 2.988,3.984 2.988,7.031 0,3.06 -0.996,5.417 -2.988,7.07 -1.979,1.641 -4.824,2.461 -8.535,2.461 h -4.961 v 10.117 h -7.52 V 27.247 Z m 7.519,5.449 v 8.145 h 4.16 c 1.458,0 2.585,-0.352 3.379,-1.055 0.794,-0.716 1.191,-1.725 1.191,-3.027 0,-1.302 -0.397,-2.305 -1.191,-3.008 -0.794,-0.703 -1.921,-1.055 -3.379,-1.055 z"
   id="path13259" />
	<path
   fill="#ffffff"
   d="m 103.612,27.247 h 26.875 v 5.684 h -9.668 v 23.477 h -7.52 V 32.93 h -9.688 v -5.683 z"
   id="path13261" />
</g>
</svg>
