<?xml version="1.0" encoding="UTF-8" standalone="no"?>
<svg
   enable-background="new"
   height="256"
   width="256"
   version="1.1"
   id="svg1477"
   sodipodi:docname="qgis-mime.svg"
   inkscape:version="1.2.2 (b0a8486541, 2022-12-01)"
   xmlns:inkscape="http://www.inkscape.org/namespaces/inkscape"
   xmlns:sodipodi="http://sodipodi.sourceforge.net/DTD/sodipodi-0.dtd"
   xmlns:xlink="http://www.w3.org/1999/xlink"
   xmlns="http://www.w3.org/2000/svg"
   xmlns:svg="http://www.w3.org/2000/svg">
  <defs
     id="defs1481">
    <linearGradient
       id="linearGradient3038"
       inkscape:swatch="solid">
      <stop
         style="stop-color:#ffffff;stop-opacity:1;"
         offset="0"
         id="stop3036" />
    </linearGradient>
    <linearGradient
       id="linearGradient3032"
       inkscape:swatch="solid">
      <stop
         style="stop-color:#ffffff;stop-opacity:1;"
         offset="0"
         id="stop3030" />
    </linearGradient>
    <linearGradient
       inkscape:collect="always"
       xlink:href="#linearGradient3038"
       id="linearGradient3034"
       x1="117.30883"
       y1="50.522263"
       x2="124.82836"
       y2="50.522263"
       gradientUnits="userSpaceOnUse"
       gradientTransform="translate(-16.802779,-8.0860127)" />
    <linearGradient
       inkscape:collect="always"
       xlink:href="#linearGradient3038"
       id="linearGradient3040"
       x1="125.20711"
       y1="42.241405"
       x2="148.21492"
       y2="42.241405"
       gradientUnits="userSpaceOnUse"
       gradientTransform="translate(-10)" />
    <linearGradient
       id="linearGradient976"
       inkscape:swatch="solid">
      <stop
         style="stop-color:#bebebe;stop-opacity:1;"
         offset="0"
         id="stop974" />
    </linearGradient>
    <linearGradient
       inkscape:collect="always"
       xlink:href="#linearGradient976"
       id="linearGradient972-6"
       x1="0"
       y1="31.57"
       x2="63.908001"
       y2="31.57"
       gradientUnits="userSpaceOnUse" />
    <linearGradient
       inkscape:collect="always"
       xlink:href="#linearGradient976"
       id="linearGradient5302"
       gradientUnits="userSpaceOnUse"
       x1="26.613001"
       y1="36.109001"
       x2="43.810001"
       y2="36.109001" />
    <linearGradient
       inkscape:collect="always"
       xlink:href="#linearGradient976"
       id="linearGradient5304"
       gradientUnits="userSpaceOnUse"
       x1="38.612999"
       y1="51.489498"
       x2="63.612999"
       y2="51.489498" />
  </defs>
  <sodipodi:namedview
     id="namedview1479"
     pagecolor="#ffffff"
     bordercolor="#000000"
     borderopacity="0.25"
     inkscape:showpageshadow="2"
     inkscape:pageopacity="0.0"
     inkscape:pagecheckerboard="0"
     inkscape:deskcolor="#d1d1d1"
     showgrid="false"
     inkscape:zoom="3.2460938"
     inkscape:cx="108.90012"
     inkscape:cy="128.92419"
     inkscape:window-width="1920"
     inkscape:window-height="997"
     inkscape:window-x="0"
     inkscape:window-y="0"
     inkscape:window-maximized="1"
     inkscape:current-layer="svg1477" />
  <linearGradient
     id="a">
    <stop
       offset="0"
       stop-color="#f5f5f5"
       id="stop1364" />
    <stop
       offset="1"
       stop-color="#fff"
       id="stop1366" />
  </linearGradient>
  <linearGradient
     id="b"
     gradientUnits="userSpaceOnUse"
     x1="190.52345"
     x2="180.14067"
     y1="30.799114"
     y2="41.59544">
    <stop
       offset="0"
       stop-color="#afafaf"
       id="stop1369" />
    <stop
       offset="1"
       stop-color="#fff"
       id="stop1371" />
  </linearGradient>
  <linearGradient
     id="c"
     gradientUnits="userSpaceOnUse"
     x1="120.7066"
     x2="123.01035"
     xlink:href="#a"
     y1="244.55363"
     y2="121.55801" />
  <linearGradient
     gradientUnits="userSpaceOnUse"
     x1="-19.831818"
     x2="384.75043"
     xlink:href="#a"
     y1="221.75748"
     y2="222.76762"
     id="linearGradient1375" />
  <filter
     id="d"
     color-interpolation-filters="sRGB"
     x="-0.052127235"
     y="-0.039675402"
     width="1.1140283"
     height="1.0867899">
    <feFlood
       flood-opacity=".851449"
       result="flood"
       id="feFlood1377" />
    <feComposite
       in="flood"
       in2="SourceGraphic"
       operator="in"
       result="composite1"
       id="feComposite1379" />
    <feGaussianBlur
       result="blur"
       stdDeviation="4"
       id="feGaussianBlur1381" />
    <feOffset
       dx="1.8"
       dy="1.8"
       result="offset"
       id="feOffset1383" />
    <feComposite
       in="SourceGraphic"
       in2="offset"
       operator="over"
       result="composite2"
       id="feComposite1385" />
  </filter>
  <filter
     id="e"
     color-interpolation-filters="sRGB"
     x="-0.17846452"
     y="-0.17397739"
     width="1.3903911"
     height="1.3805755">
    <feFlood
       flood-opacity=".775362"
       result="flood"
       id="feFlood1388" />
    <feComposite
       in="flood"
       in2="SourceGraphic"
       operator="in"
       result="composite1"
       id="feComposite1390" />
    <feGaussianBlur
       result="blur"
       stdDeviation="4"
       id="feGaussianBlur1392" />
    <feOffset
       dx="1.8"
       dy="1.8"
       result="offset"
       id="feOffset1394" />
    <feComposite
       in="SourceGraphic"
       in2="offset"
       operator="over"
       result="composite2"
       id="feComposite1396" />
  </filter>
  <filter
     id="f"
     color-interpolation-filters="sRGB"
     x="-0.052095237"
     y="-0.10076316"
     width="1.1327619"
     height="1.2567895">
    <feFlood
       flood-opacity=".419"
       result="flood"
       id="feFlood1399" />
    <feComposite
       in="flood"
       in2="SourceGraphic"
       operator="in"
       result="composite1"
       id="feComposite1401" />
    <feGaussianBlur
       result="blur"
       stdDeviation="1.8"
       id="feGaussianBlur1403" />
    <feOffset
       dx="3"
       dy="3"
       result="offset"
       id="feOffset1405" />
    <feComposite
       in="SourceGraphic"
       in2="offset"
       operator="over"
       result="composite2"
       id="feComposite1407" />
  </filter>
  <filter
     id="g"
     color-interpolation-filters="sRGB"
     x="0.092171584"
     y="0.024860412"
     width="0.79309325"
     height="1.019049">
    <feFlood
       flood-opacity=".5"
       result="flood"
       id="feFlood1410" />
    <feComposite
       in="flood"
       in2="SourceGraphic"
       operator="in"
       result="composite1"
       id="feComposite1412" />
    <feGaussianBlur
       result="blur"
       stdDeviation="2"
       id="feGaussianBlur1414" />
    <feOffset
       dx="1.5"
       dy="1.5"
       result="offset"
       id="feOffset1416" />
    <feComposite
       in="SourceGraphic"
       in2="offset"
       operator="over"
       result="composite2"
       id="feComposite1418" />
  </filter>
  <clipPath
     id="h">
    <path
       d="m41.45607 282.45609h170.30554v157.49495h-170.30554z"
       id="path1421" />
  </clipPath>
  <linearGradient
     id="i"
     gradientUnits="userSpaceOnUse"
     x1="61.441303"
     x2="63.125427"
     y1="161.2032"
     y2="273.62759">
    <stop
       offset="0"
       stop-color="#129300"
       id="stop1424" />
    <stop
       offset="1"
       stop-color="#e4f363"
       id="stop1426" />
  </linearGradient>
  <path
     d="m34.837365 5.00045h131.100135l53.06463 54.048418-.15712 187.915102h-184.007645z"
     fill="url(#c)"
     filter="url(#d)"
     id="path1429" />
  <path
     d="m219.32937 59.651599c.12627 0-7.3236-6.060915-11.49048-8.207489-4.16688-2.146575-8.94112-3.519572-13.63706-3.535535-20.02578-.06808-20.07678.126269-20.07678.126269s-.39604.58032-.12627-24.243661c.0311-2.86224-1.51524-6.944799-2.65166-9.47018-2.24321-4.3554815-5.80837-9.8489872-5.80837-9.8489872"
     fill="url(#b)"
     filter="url(#e)"
     id="path1431" />
  <g
     fill="none"
     stroke-linecap="round"
     id="g1443">
    <path
       d="m165.55869 4.7479137 53.82226 54.9323013"
       stroke="#c2c2c2"
       stroke-linejoin="round"
       stroke-miterlimit="0"
       id="path1433" />
    <path
       d="m219.38095 59.680215.0323 187.851965h-184.954662"
       stroke="#878787"
       stroke-linejoin="round"
       stroke-miterlimit="0"
       stroke-width="2"
       id="path1435" />
    <path
       d="m34.458588 247.53218-.000001-242.9105354h131.100133"
       stroke="#b6b6b6"
       stroke-linejoin="round"
       stroke-miterlimit="0"
       stroke-width="2"
       id="path1437" />
    <path
       d="m219.32937 59.651603c.12627 0-7.3236-6.060915-11.49048-8.207489-4.16688-2.146575-8.94112-3.519572-13.63706-3.535535-20.02578-.06808-20.07678.126269-20.07678.126269"
       stroke="#878787"
       stroke-width="2"
       visibility="hidden"
       id="path1439" />
    <path
       d="m174.12505 48.034848s-.39604.58032-.12627-24.243661c.0311-2.86224-1.51524-6.944799-2.65166-9.47018-2.24321-4.3554813-5.80837-9.848987-5.80837-9.848987"
       stroke="#b6b6b6"
       stroke-width="2"
       visibility="hidden"
       id="path1441" />
  </g>
  <path
     d="m17.142857 168.14285h105v54.285713h-105z"
     fill="url(#i)"
     filter="url(#f)"
     stroke="#060"
     stroke-width="2.3"
     transform="matrix(1.3025271 0 0 .86324706 -5.165627 -125.56827)"
     id="path1469" />
  <path
     d="M 47.332108,57.329296 H 46.74617 c -4.8047,0 -8.541675,-1.328124 -11.210937,-3.984375 -2.669275,-2.656244 -4.003909,-6.354157 -4.003907,-11.09375 -2e-6,-4.726543 1.328122,-8.430966 3.984375,-11.113281 2.669262,-2.682263 6.341134,-4.023408 11.015625,-4.023438 4.726541,3e-5 8.404923,1.328154 11.035157,3.984375 2.643198,2.656273 3.964811,6.373718 3.964843,11.152344 -3.2e-5,3.281261 -0.703156,6.106779 -2.109375,8.476563 -1.393257,2.369795 -3.404974,4.153647 -6.035156,5.351562 l 5.878906,6.5625 H 52.097733 Z M 46.531326,32.563671 c -2.291681,2.4e-5 -4.069023,0.846378 -5.332031,2.539063 -1.263031,1.692728 -1.894541,4.075538 -1.894531,7.148437 -10e-6,3.125012 0.618479,5.520842 1.855469,7.1875 1.236966,1.653652 3.027329,2.480474 5.371093,2.480469 2.304668,5e-6 4.088521,-0.846349 5.351563,-2.539063 1.262997,-1.692699 1.894507,-4.068999 1.894531,-7.128906 -2.4e-5,-3.072899 -0.631534,-5.455709 -1.894531,-7.148437 -1.263042,-1.692685 -3.046895,-2.539039 -5.351563,-2.539063"
     fill="#ffffff"
     fill-rule="evenodd"
     id="path1471" />
  <path
     d="m 93.40633,54.633984 c -1.87503,0.911459 -3.821644,1.595052 -5.839847,2.050781 -2.018252,0.455729 -4.101583,0.683593 -6.25,0.683594 -4.856784,-10e-7 -8.704437,-1.354166 -11.542969,-4.0625 -2.838545,-2.721348 -4.257815,-6.40624 -4.257813,-11.054688 -2e-6,-4.700501 1.445309,-8.398414 4.335938,-11.09375 2.890616,-2.695284 6.848945,-4.042939 11.875,-4.042969 1.940084,3e-5 3.795551,0.182322 5.566406,0.546875 1.783829,0.364612 3.463515,0.904977 5.039065,1.621094 v 6.035156 c -1.62763,-0.924456 -3.248726,-1.61456 -4.863284,-2.070312 -1.601585,-0.455705 -3.209656,-0.68357 -4.824218,-0.683594 -2.994808,2.4e-5 -5.306004,0.839867 -6.933594,2.519531 -1.614594,1.666687 -2.421885,4.056008 -2.421875,7.167969 -1e-5,3.085949 0.781239,5.468759 2.34375,7.148438 1.562486,1.679693 3.782536,2.519536 6.660156,2.519531 0.78123,5e-6 1.503886,-0.04557 2.167969,-0.136719 0.677062,-0.104161 1.28253,-0.260411 1.816406,-0.46875 V 45.649609 H 81.687576 V 40.610546 H 93.40633 Z"
     fill="#ffffff"
     id="path1473" />
  <path
     d="m 136.30086,28.559765 v 6.171875 c -1.60159,-0.716123 -3.16409,-1.256487 -4.6875,-1.621094 -1.52346,-0.364559 -2.96226,-0.546851 -4.31641,-0.546875 -1.79689,2.4e-5 -3.12501,0.24742 -3.98437,0.742188 -0.85939,0.494814 -1.28908,1.263043 -1.28907,2.304687 -1e-5,0.781271 0.28645,1.393249 0.85938,1.835938 0.58593,0.429706 1.64061,0.800799 3.16406,1.113281 l 3.20313,0.644531 c 3.24216,0.651059 5.54685,1.640641 6.91406,2.96875 1.36716,1.328138 2.05075,3.216157 2.05078,5.664063 -3e-5,3.216151 -0.95706,5.611982 -2.87109,7.1875 -1.90107,1.5625 -4.81122,2.343749 -8.73047,2.34375 -1.84897,-10e-7 -3.70444,-0.175782 -5.56641,-0.527344 -1.86198,-0.351562 -3.72396,-0.872395 -5.58594,-1.5625 v -6.347656 c 1.86198,0.98959 3.65885,1.738287 5.39063,2.246093 1.74478,0.494797 3.42447,0.742193 5.03906,0.742188 1.64061,5e-6 2.89712,-0.273432 3.76953,-0.820313 0.87238,-0.546868 1.30858,-1.328118 1.3086,-2.34375 -2e-5,-0.911449 -0.2995,-1.614573 -0.89844,-2.109375 -0.58596,-0.494781 -1.76434,-0.937489 -3.53516,-1.328125 l -2.91015,-0.644531 c -2.91668,-0.624987 -5.05209,-1.62108 -6.40625,-2.988281 -1.34115,-1.367171 -2.01173,-3.209617 -2.01172,-5.527344 -1e-5,-2.903622 0.93749,-5.136693 2.8125,-6.699219 1.87499,-1.562471 4.5703,-2.34372 8.08594,-2.34375 1.60154,3e-5 3.24868,0.123728 4.9414,0.371094 1.69269,0.234404 3.44399,0.592477 5.25391,1.074219"
     fill="#ffffff"
     id="path1475"
     style="fill:url(#linearGradient3040);fill-opacity:1" />
  <path
     d="m 100.50605,27.856171 h 7.51953 v 29.160157 h -7.51953 z"
     id="path1677"
     style="fill:url(#linearGradient3034);fill-opacity:1" />
  <g
     id="g2492"
     transform="matrix(2.2185741,0,0,2.2185741,55.414436,90.696833)">
    <polygon
       points="35.836,27.625 26.613,27.625 26.613,36.695 34.613,44.593 34.613,35.471 43.81,35.438 "
       fill="param(fill)"
       fill-opacity="param(fill-opacity)"
       stroke="param(outline)"
       stroke-opacity="param(outline-opacity) 0"
       stroke-width="param(outline-width) 0.5"
       id="polygon178-2"
       style="fill:url(#linearGradient5302);fill-opacity:1"
       inkscape:label="path178" />
    <polygon
       points="38.613,39.354 38.613,48.688 53.553,63.625 63.613,63.625 63.613,54.844 47.819,39.367 "
       fill="param(fill)"
       fill-opacity="param(fill-opacity)"
       stroke="param(outline)"
       stroke-opacity="param(outline-opacity) 0"
       stroke-width="param(outline-width) 0.5"
       id="polygon180-9"
       style="fill:url(#linearGradient5304);fill-opacity:1"
       inkscape:label="path180" />
    <path
       d="m 35.553,50.859 c -1.359,0.313 -1.988,0.312 -3.446,0.312 -10.429,0 -19.299,-8.575 -19.299,-19.696 0,-11.12 8.772,-19.506 19.299,-19.506 10.527,0 18.911,8.387 18.911,19.506 0,1.809 -0.227,3.548 -0.644,5.198 l 9.653,9.651 c 2.488,-4.36 3.881,-9.43 3.881,-14.922 C 63.908,14.264 50.23,1.431 31.911,1.431 13.677,1.431 0,14.179 0,31.401 c 0,17.306 13.677,30.308 31.912,30.308 4.708,0 8.394,-0.586 12.334,-2.161 z"
       fill="param(fill)"
       fill-opacity="param(fill-opacity)"
       stroke="param(outline)"
       stroke-opacity="param(outline-opacity) 0"
       stroke-width="param(outline-width) 0.5"
       id="path182-1"
       inkscape:highlight-color="#bebeaa"
       style="fill:url(#linearGradient972-6);fill-opacity:1"
       inkscape:label="path182" />
  </g>
</svg>
