<?xml version="1.0" encoding="UTF-8" standalone="no"?>
<svg
   enable-background="new"
   height="256"
   width="256"
   version="1.1"
   id="svg45368"
   sodipodi:docname="qgis-qgz.svg"
   inkscape:version="1.2.2 (b0a8486541, 2022-12-01)"
   xmlns:inkscape="http://www.inkscape.org/namespaces/inkscape"
   xmlns:sodipodi="http://sodipodi.sourceforge.net/DTD/sodipodi-0.dtd"
   xmlns:xlink="http://www.w3.org/1999/xlink"
   xmlns="http://www.w3.org/2000/svg"
   xmlns:svg="http://www.w3.org/2000/svg">
  <defs
     id="defs45372">
    <filter
       id="e-6"
       color-interpolation-filters="sRGB"
       x="-0.033727241"
       y="-0.036372619"
       width="1.0769999"
       height="1.0830394">
	<feFlood
   result="flood"
   flood-opacity=".5"
   id="feFlood13105" />

	<feComposite
   operator="in"
   in2="SourceGraphic"
   in="flood"
   result="composite1"
   id="feComposite13107" />

	<feGaussianBlur
   stdDeviation="2"
   result="blur"
   id="feGaussianBlur13109" />

	<feOffset
   dy="1.5"
   dx="1.5"
   result="offset"
   id="feOffset13111" />

	<feComposite
   operator="over"
   in2="offset"
   in="SourceGraphic"
   result="composite2"
   id="feComposite13113" />

</filter>
  </defs>
  <sodipodi:namedview
     id="namedview45370"
     pagecolor="#ffffff"
     bordercolor="#000000"
     borderopacity="0.25"
     inkscape:showpageshadow="2"
     inkscape:pageopacity="0.0"
     inkscape:pagecheckerboard="0"
     inkscape:deskcolor="#d1d1d1"
     showgrid="false"
     inkscape:zoom="3.2460938"
     inkscape:cx="127.84597"
     inkscape:cy="128.30806"
     inkscape:window-width="1920"
     inkscape:window-height="997"
     inkscape:window-x="0"
     inkscape:window-y="0"
     inkscape:window-maximized="1"
     inkscape:current-layer="svg45368" />
  <linearGradient
     id="a">
    <stop
       offset="0"
       stop-color="#f5f5f5"
       id="stop45247" />
    <stop
       offset="1"
       stop-color="#fff"
       id="stop45249" />
  </linearGradient>
  <linearGradient
     id="d"
     gradientUnits="userSpaceOnUse"
     x1="190.523"
     x2="180.141"
     y1="30.799"
     y2="41.595">
    <stop
       offset="0"
       stop-color="#afafaf"
       id="stop45252" />
    <stop
       offset="1"
       stop-color="#fff"
       id="stop45254" />
  </linearGradient>
  <linearGradient
     id="b"
     gradientUnits="userSpaceOnUse"
     x1="120.707"
     x2="123.01"
     xlink:href="#a"
     y1="244.554"
     y2="121.558" />
  <filter
     id="c"
     color-interpolation-filters="sRGB"
     x="-0.052127169"
     y="-0.039675324"
     width="1.1140282"
     height="1.0867898">
    <feFlood
       flood-opacity=".851"
       result="flood"
       id="feFlood45258" />
    <feComposite
       in="flood"
       in2="SourceGraphic"
       operator="in"
       result="composite1"
       id="feComposite45260" />
    <feGaussianBlur
       result="blur"
       stdDeviation="4"
       id="feGaussianBlur45262" />
    <feOffset
       dx="1.8"
       dy="1.8"
       result="offset"
       id="feOffset45264" />
    <feComposite
       in="SourceGraphic"
       in2="offset"
       result="composite2"
       id="feComposite45266" />
  </filter>
  <filter
     id="e"
     color-interpolation-filters="sRGB"
     x="-0.17846328"
     y="-0.17397608"
     width="1.3903884"
     height="1.3805727">
    <feFlood
       flood-opacity=".775"
       result="flood"
       id="feFlood45269" />
    <feComposite
       in="flood"
       in2="SourceGraphic"
       operator="in"
       result="composite1"
       id="feComposite45271" />
    <feGaussianBlur
       result="blur"
       stdDeviation="4"
       id="feGaussianBlur45273" />
    <feOffset
       dx="1.8"
       dy="1.8"
       result="offset"
       id="feOffset45275" />
    <feComposite
       in="SourceGraphic"
       in2="offset"
       result="composite2"
       id="feComposite45277" />
  </filter>
  <filter
     id="i"
     color-interpolation-filters="sRGB"
     x="-0.052095237"
     y="-0.10076263"
     width="1.1327619"
     height="1.2567881">
    <feFlood
       flood-opacity=".419"
       result="flood"
       id="feFlood45280" />
    <feComposite
       in="flood"
       in2="SourceGraphic"
       operator="in"
       result="composite1"
       id="feComposite45282" />
    <feGaussianBlur
       result="blur"
       stdDeviation="1.8"
       id="feGaussianBlur45284" />
    <feOffset
       dx="3"
       dy="3"
       result="offset"
       id="feOffset45286" />
    <feComposite
       in="SourceGraphic"
       in2="offset"
       result="composite2"
       id="feComposite45288" />
  </filter>
  <filter
     id="f"
     color-interpolation-filters="sRGB"
     x="0.092172005"
     y="0.024868413"
     width="0.7930991"
     height="1.0190407">
    <feFlood
       flood-opacity=".5"
       result="flood"
       id="feFlood45291" />
    <feComposite
       in="flood"
       in2="SourceGraphic"
       operator="in"
       result="composite1"
       id="feComposite45293" />
    <feGaussianBlur
       result="blur"
       stdDeviation="2"
       id="feGaussianBlur45295" />
    <feOffset
       dx="1.5"
       dy="1.5"
       result="offset"
       id="feOffset45297" />
    <feComposite
       in="SourceGraphic"
       in2="offset"
       result="composite2"
       id="feComposite45299" />
  </filter>
  <clipPath
     id="g">
    <path
       d="M41.456 282.456h170.306v157.495H41.456z"
       id="path45302" />
  </clipPath>
  <linearGradient
     id="h"
     gradientUnits="userSpaceOnUse"
     x1="61.441"
     x2="63.125"
     y1="161.203"
     y2="273.628">
    <stop
       offset="0"
       stop-color="#129300"
       id="stop45305" />
    <stop
       offset="1"
       stop-color="#e4f363"
       id="stop45307" />
  </linearGradient>
  <path
     d="M34.837 5h131.1l53.065 54.049-.157 187.915H34.837z"
     fill="url(#b)"
     filter="url(#c)"
     id="path45310" />
  <path
     d="M219.33 59.652c.126 0-7.324-6.061-11.491-8.208-4.167-2.146-8.941-3.52-13.637-3.535-20.026-.069-20.077.126-20.077.126s-.396.58-.126-24.244c.03-2.862-1.515-6.945-2.652-9.47-2.243-4.355-5.808-9.849-5.808-9.849"
     fill="url(#d)"
     filter="url(#e)"
     id="path45312" />
  <g
     fill="none"
     stroke-linecap="round"
     stroke-linejoin="round"
     stroke-miterlimit="0"
     id="g45320">
    <path
       d="M165.559 4.748L219.38 59.68"
       stroke="#c2c2c2"
       id="path45314" />
    <path
       d="M219.381 59.68l.032 187.852H34.46"
       stroke="#878787"
       stroke-width="2"
       id="path45316" />
    <path
       d="M34.459 247.532V4.622h131.1"
       stroke="#b6b6b6"
       stroke-width="2"
       id="path45318" />
  </g>
  <g
     filter="url(#e)"
     id="g13194"
     inkscape:label="g13194"
     style="filter:url(#e-6)">
	<rect
   x="48.174"
   y="88.796997"
   fill="#ffffff"
   width="157.14301"
   height="145.714"
   id="rect13190" />

	<rect
   x="48.174"
   y="88.796997"
   fill="none"
   stroke="#b3b3b3"
   width="157.14301"
   height="145.714"
   id="rect13192" />

</g>
  <g
     id="g44247"
     transform="matrix(0.26458493,0,0,0.26458493,-771.4796,-156.73268)"
     style="display:inline;stroke:none">
    <g
       inkscape:label="layer"
       id="g44218"
       style="display:inline;stroke:none">
      <path
         d="m 3139.9052,953.47717 h 514.0882 v 475.41713 h -514.0882 z"
         style="fill:#b9df4f;fill-opacity:1;stroke:none;stroke-width:1.00157;stroke-dasharray:none;stroke-opacity:1"
         id="path44216"
         inkscape:label="frame"
         transform="translate(2.7559056e-5)" />
      <path
         d="m 3139.9052,1002.5228 v 60.2001 l 54.2453,44.63 -54.2453,66.2575 v 47.7303 l 77.5947,-94.7773 130.2075,107.168 -207.8022,57.7751 v 15.6915 l 222.0942,-61.7486 222.9674,183.4449 h 69.0266 v -3.4089 l -139.9733,-115.1621 120.4523,-152.4228 19.521,104.7969 v -82.5565 l -7.0763,-37.9882 7.0763,-8.9544 v -24.3833 l -15.1801,19.2093 -155.2927,-126.1765 39.3314,-48.37063 h -38.9704 l -161.763,198.91003 z"
         style="fill:#fcfcb4;fill-opacity:1;stroke:none;stroke-width:1.00157;stroke-linecap:round;stroke-dasharray:none"
         id="path44198"
         inkscape:label="road" />
      <path
         d="m 3345.4948,1171.6703 128.488,-158.0927 155.4561,126.3092 -127.0957,160.8294 z"
         style="display:inline;fill:#159401;fill-opacity:1;stroke:none;stroke-width:1.00157;stroke-linecap:round;stroke-dasharray:none"
         id="path44200"
         inkscape:label="greenland" />
    </g>
  </g>
  <path
     d="M17.143 168.143h105v54.286h-105z"
     fill="url(#h)"
     filter="url(#i)"
     stroke="#060"
     stroke-width="2.3"
     transform="matrix(1.30253 0 0 .86325 -5.166 -125.568)"
     id="path45346" />
  <path
     d="M57.332 57.33h-.586c-4.805 0-8.542-1.329-11.21-3.985-2.67-2.656-4.005-6.354-4.005-11.094 0-4.726 1.328-8.43 3.985-11.113 2.669-2.682 6.34-4.024 11.015-4.024 4.727 0 8.405 1.329 11.035 3.985 2.644 2.656 3.965 6.374 3.965 11.152 0 3.281-.703 6.107-2.109 8.477-1.393 2.37-3.405 4.153-6.035 5.351l5.879 6.563h-7.168zm-.8-24.766c-2.292 0-4.07.846-5.333 2.539-1.263 1.692-1.894 4.075-1.894 7.148 0 3.125.618 5.521 1.855 7.188 1.237 1.653 3.028 2.48 5.371 2.48 2.305 0 4.089-.846 5.352-2.539s1.894-4.069 1.894-7.129c0-3.073-.631-5.456-1.894-7.148-1.263-1.693-3.047-2.54-5.352-2.54"
     fill="#fff"
     fill-rule="evenodd"
     id="path45348" />
  <path
     d="M103.406 54.634a26.837 26.837 0 01-5.84 2.05 28.29 28.29 0 01-6.25.684c-4.856 0-8.704-1.354-11.542-4.062-2.839-2.721-4.258-6.406-4.258-11.055 0-4.7 1.445-8.398 4.336-11.094 2.89-2.695 6.849-4.043 11.875-4.043 1.94 0 3.795.183 5.566.547 1.784.365 3.464.905 5.04 1.621v6.036c-1.629-.925-3.25-1.615-4.864-2.07a17.553 17.553 0 00-4.824-.684c-2.995 0-5.306.84-6.934 2.52-1.615 1.666-2.422 4.055-2.422 7.167 0 3.086.781 5.469 2.344 7.149 1.562 1.68 3.782 2.52 6.66 2.52.781 0 1.504-.046 2.168-.138a8.592 8.592 0 001.816-.468V45.65h-4.59v-5.04h11.72z"
     fill="#fff"
     id="path45350" />
  <text
     style="line-height:1.25;-inkscape-font-specification:Trueno"
     x="106.934"
     y="57.092"
     font-weight="400"
     font-size="55.913"
     font-family="Trueno"
     letter-spacing="0"
     word-spacing="0"
     fill="#fff"
     stroke-width="8.784"
     id="text45354"><tspan
       x="106.934"
       y="57.092"
       style="-inkscape-font-specification:'Trueno Semi-Bold'"
       font-weight="600"
       id="tspan45352">z</tspan></text>
  <path
     fill="#888a85"
     d="M143.512 24.789v20.834c0 5.73 4.661 10.417 10.417 10.417 5.755 0 10.417-4.688 10.417-10.417V24.789z"
     id="path45356" />
  <path
     fill="#555"
     d="M153.929 24.789v5.208h5.208V24.79zm0 5.208h-5.209v5.209h5.209zm0 5.209v5.208h5.208v-5.208zm0 5.208h-5.209v5.209h5.209zm0 5.209v5.208c2.875 0 5.208-2.604 5.208-5.208z"
     id="path45358" />
  <path
     fill="#ddd"
     d="M148.72 24.789v5.208h5.209V24.79zm0 10.417v5.208h5.209v-5.208zm0 10.417c0 2.604 2.334 5.208 5.209 5.208v-5.208z"
     id="path45360" />
  <path
     fill="#cfcfcf"
     d="M153.929 29.997h5.208v5.209h-5.208zm0 10.417h5.208v5.209h-5.208z"
     id="path45362" />
  <path
     fill="#555"
     d="M153.929 50.831c-5.756 0-10.417 4.688-10.417 10.417v20.834c0 5.73 4.661 10.417 10.417 10.417 5.755 0 10.417-4.688 10.417-10.417V61.248c0-5.73-4.662-10.417-10.417-10.417zm0 5.209c2.875 0 5.208 2.083 5.208 5.208 0 2.604-2.333 5.209-5.208 5.209s-5.209-2.605-5.209-5.209c0-3.125 2.334-5.208 5.209-5.208zm0 15.625c2.875 0 5.208 2.083 5.208 5.208v5.209c0 2.604-2.333 5.208-5.208 5.208s-5.209-2.604-5.209-5.208v-5.209c0-3.125 2.334-5.208 5.209-5.208zm-5.209-52.084h5.209v5.208h-5.209z"
     id="path45364" />
  <path
     d="M153.929 19.58h5.208v5.209h-5.208z"
     fill="#cfcfcf"
     id="path45366" />
</svg>
